HIERARCHY
ROOT hips
{
  OFFSET 0 10.6860622 2.3727825e-15
  CHANNELS 6 Xposition Yposition Zposition Yrotation Xrotation Zrotation
  JOINT leftUpperLeg
  {
    OFFSET 0.6642549969 -0.9402397400000004 0
    CHANNELS 3 Yrotation Xrotation Zrotation
    JOINT leftLowerLeg
    {
      OFFSET 0 -3.997221335632195 0
      CHANNELS 3 Yrotation Xrotation Zrotation
      JOINT leftFoot
      {
        OFFSET -0.13777839790000004 -4.6145792000000005 -0.22186036399999998
        CHANNELS 3 Yrotation Xrotation Zrotation
        JOINT leftToes
        {
          OFFSET -0.03777410834999995 -0.9130806927000008 0.85230013
          CHANNELS 3 Yrotation Xrotation Zrotation
          End Site
          {
            OFFSET -0.03777410834999995 -0.9130806927000008 0.85230013
          }
        }
      }
    }
  }
  JOINT rightUpperLeg
  {
    OFFSET -0.6642778626 -0.9402397400000004 0
    CHANNELS 3 Yrotation Xrotation Zrotation
    JOINT rightLowerLeg
    {
      OFFSET 0 -3.997221452859387 0
      CHANNELS 3 Yrotation Xrotation Zrotation
      JOINT rightFoot
      {
        OFFSET 0.1377926176 -4.6145792000000005 -0.22185782299999995
        CHANNELS 3 Yrotation Xrotation Zrotation
        JOINT rightToes
        {
          OFFSET 0.037780746850000047 -0.9130806927000008 0.85230167
          CHANNELS 3 Yrotation Xrotation Zrotation
          End Site
          {
            OFFSET 0.037780746850000047 -0.9130806927000008 0.85230167
          }
        }
      }
    }
  }
  JOINT spine
  {
    OFFSET 0 0.13988381660000015 0
    CHANNELS 3 Yrotation Xrotation Zrotation
    JOINT chest
    {
      OFFSET 0 0.6191039003973773 0
      CHANNELS 3 Yrotation Xrotation Zrotation
      JOINT upperChest
      {
        OFFSET 0 0.9855186130586943 0
        CHANNELS 3 Yrotation Xrotation Zrotation
        JOINT leftShoulder
        {
          OFFSET 0.1807663869 1.5087829790000005 0
          CHANNELS 3 Yrotation Xrotation Zrotation
          JOINT leftUpperArm
          {
            OFFSET 0.5985063006419806 0 0
            CHANNELS 3 Yrotation Xrotation Zrotation
            JOINT leftLowerArm
            {
              OFFSET 2.2993332369501065 0 0
              CHANNELS 3 Yrotation Xrotation Zrotation
              JOINT leftHand
              {
                OFFSET 2.395047042602395 0 0
                CHANNELS 3 Yrotation Xrotation Zrotation
                JOINT leftIndexProximal
                {
                  OFFSET 0.5766295810000004 0.04556643899499946 0.17265095988184
                  CHANNELS 3 Yrotation Xrotation Zrotation
                  JOINT leftIndexIntermediate
                  {
                    OFFSET 0.2957229000000008 -0.019352197700001517 -0.007932640616999987
                    CHANNELS 3 Yrotation Xrotation Zrotation
                    JOINT leftIndexDistal
                    {
                      OFFSET 0.19008243099999922 -0.012484908149998475 -0.002786250786000012
                      CHANNELS 3 Yrotation Xrotation Zrotation
                      End Site
                      {
                        OFFSET 0.19008243099999922 -0.012484908149998475 -0.002786250786000012
                      }
                    }
                  }
                }
                JOINT leftMiddleProximal
                {
                  OFFSET 0.5834975091000001 0.0524350405149987 0.02204081888183999
                  CHANNELS 3 Yrotation Xrotation Zrotation
                  JOINT leftMiddleIntermediate
                  {
                    OFFSET 0.33880573540000003 -0.019871473270000717 -0.00000971183179999946
                    CHANNELS 3 Yrotation Xrotation Zrotation
                    JOINT leftMiddleDistal
                    {
                      OFFSET 0.20676022730000088 -0.012221336379999448 0.0001471936708000235
                      CHANNELS 3 Yrotation Xrotation Zrotation
                      End Site
                      {
                        OFFSET 0.20676022730000088 -0.012221336379999448 0.0001471936708000235
                      }
                    }
                  }
                }
                JOINT leftLittleProximal
                {
                  OFFSET 0.5344154683999995 -0.012880921405001189 -0.24414037221816004
                  CHANNELS 3 Yrotation Xrotation Zrotation
                  JOINT leftLittleIntermediate
                  {
                    OFFSET 0.21758961730000093 -0.011650919939999227 0.011893592810000034
                    CHANNELS 3 Yrotation Xrotation Zrotation
                    JOINT leftLittleDistal
                    {
                      OFFSET 0.1475273964999999 -0.008152365682999818 0.006001092492999946
                      CHANNELS 3 Yrotation Xrotation Zrotation
                      End Site
                      {
                        OFFSET 0.1475273964999999 -0.008152365682999818 0.006001092492999946
                      }
                    }
                  }
                }
                JOINT leftRingProximal
                {
                  OFFSET 0.5799399463000003 0.026911854694997794 -0.12150566991816003
                  CHANNELS 3 Yrotation Xrotation Zrotation
                  JOINT leftRingIntermediate
                  {
                    OFFSET 0.26167887460000006 -0.013480186499999602 0.010996293000000053
                    CHANNELS 3 Yrotation Xrotation Zrotation
                    JOINT leftRingDistal
                    {
                      OFFSET 0.17667108799999987 -0.008990287899999228 0.0055541023999999065
                      CHANNELS 3 Yrotation Xrotation Zrotation
                      End Site
                      {
                        OFFSET 0.17667108799999987 -0.008990287899999228 0.0055541023999999065
                      }
                    }
                  }
                }
                JOINT leftThumbProximal
                {
                  OFFSET 0.11018806699999972 -0.09448718900500053 0.17047963138184
                  CHANNELS 3 Yrotation Xrotation Zrotation
                  JOINT leftThumbIntermediate
                  {
                    OFFSET 0.31062601459999983 -0.08126270900000132 0.15443142000000007
                    CHANNELS 3 Yrotation Xrotation Zrotation
                    JOINT leftThumbDistal
                    {
                      OFFSET 0.21627175790000086 -0.08833193599999878 0.018771167799999988
                      CHANNELS 3 Yrotation Xrotation Zrotation
                      End Site
                      {
                        OFFSET 0.21627175790000086 -0.08833193599999878 0.018771167799999988
                      }
                    }
                  }
                }
              }
            }
          }
        }
        JOINT neck
        {
          OFFSET 0 1.5463305265074576 0
          CHANNELS 3 Yrotation Xrotation Zrotation
          JOINT head
          {
            OFFSET 0 0.8456443600000344 0
            CHANNELS 3 Yrotation Xrotation Zrotation
            JOINT leftEye
            {
              OFFSET 0.30408573140000006 0.5104519199999995 0.1276382305
              CHANNELS 3 Yrotation Xrotation Zrotation
              End Site
              {
                OFFSET 0.30408573140000006 0.5104519199999995 0.1276382305
              }
            }
            JOINT rightEye
            {
              OFFSET -0.30409491089999996 0.5104519199999995 0.1276379445
              CHANNELS 3 Yrotation Xrotation Zrotation
              End Site
              {
                OFFSET -0.30409491089999996 0.5104519199999995 0.1276379445
              }
            }
            JOINT jaw
            {
              OFFSET -3.155239131000001e-7 -0.11984121820000082 0.60178107
              CHANNELS 3 Yrotation Xrotation Zrotation
              End Site
              {
                OFFSET -3.155239131000001e-7 -0.11984121820000082 0.60178107
              }
            }
          }
        }
        JOINT rightShoulder
        {
          OFFSET -0.1807303465 1.5087829790000005 0
          CHANNELS 3 Yrotation Xrotation Zrotation
          JOINT rightUpperArm
          {
            OFFSET -0.5985063796536958 0 0
            CHANNELS 3 Yrotation Xrotation Zrotation
            JOINT rightLowerArm
            {
              OFFSET -2.2993322059002854 0 0
              CHANNELS 3 Yrotation Xrotation Zrotation
              JOINT rightHand
              {
                OFFSET -2.395045314457259 0 0
                CHANNELS 3 Yrotation Xrotation Zrotation
                JOINT rightIndexProximal
                {
                  OFFSET -0.5764487688300002 0.0441371204405987 0.17361932004999997
                  CHANNELS 3 Yrotation Xrotation Zrotation
                  JOINT rightIndexIntermediate
                  {
                    OFFSET -0.29573011380000047 -0.01934826376999843 -0.007698921482999974
                    CHANNELS 3 Yrotation Xrotation Zrotation
                    JOINT rightIndexDistal
                    {
                      OFFSET -0.19008373999999884 -0.012503266380000655 -0.0026365778999999897
                      CHANNELS 3 Yrotation Xrotation Zrotation
                      End Site
                      {
                        OFFSET -0.19008373999999884 -0.012503266380000655 -0.0026365778999999897
                      }
                    }
                  }
                }
                JOINT rightMiddleProximal
                {
                  OFFSET -0.5834852037300005 0.05211639405060153 0.02307162440000001
                  CHANNELS 3 Yrotation Xrotation Zrotation
                  JOINT rightMiddleIntermediate
                  {
                    OFFSET -0.33880114510000003 -0.019952774050000954 0.0002455003561999819
                    CHANNELS 3 Yrotation Xrotation Zrotation
                    JOINT rightMiddleDistal
                    {
                      OFFSET -0.20675694929999955 -0.012273788999999091 0.00030209124000002766
                      CHANNELS 3 Yrotation Xrotation Zrotation
                      End Site
                      {
                        OFFSET -0.20675694929999955 -0.012273788999999091 0.00030209124000002766
                      }
                    }
                  }
                }
                JOINT rightLittleProximal
                {
                  OFFSET -0.5346811737299992 -0.011214256288399227 -0.24363941305000003
                  CHANNELS 3 Yrotation Xrotation Zrotation
                  JOINT rightLittleIntermediate
                  {
                    OFFSET -0.21757715980000092 -0.011771559690000988 0.01201554387
                    CHANNELS 3 Yrotation Xrotation Zrotation
                    JOINT rightLittleDistal
                    {
                      OFFSET -0.1475201849000004 -0.00822055339600003 0.006082065407000015
                      CHANNELS 3 Yrotation Xrotation Zrotation
                      End Site
                      {
                        OFFSET -0.1475201849000004 -0.00822055339600003 0.006082065407000015
                      }
                    }
                  }
                }
                JOINT rightRingProximal
                {
                  OFFSET -0.5800810755299999 0.027657985680600072 -0.12066365025000003
                  CHANNELS 3 Yrotation Xrotation Zrotation
                  JOINT rightRingIntermediate
                  {
                    OFFSET -0.26166445029999974 -0.013623118409999302 0.011164098990000045
                    CHANNELS 3 Yrotation Xrotation Zrotation
                    JOINT rightRingDistal
                    {
                      OFFSET -0.17666387530000027 -0.009072900100000503 0.005668185599999959
                      CHANNELS 3 Yrotation Xrotation Zrotation
                      End Site
                      {
                        OFFSET -0.17666387530000027 -0.009072900100000503 0.005668185599999959
                      }
                    }
                  }
                }
                JOINT rightThumbProximal
                {
                  OFFSET -0.10997596379000074 -0.09577489355940072 0.16989765924999997
                  CHANNELS 3 Yrotation Xrotation Zrotation
                  JOINT rightThumbIntermediate
                  {
                    OFFSET -0.31036620999999986 -0.08229339117999834 0.15440884469999996
                    CHANNELS 3 Yrotation Xrotation Zrotation
                    JOINT rightThumbDistal
                    {
                      OFFSET -0.21631306399999906 -0.08825326400000111 0.018656797720000014
                      CHANNELS 3 Yrotation Xrotation Zrotation
                      End Site
                      {
                        OFFSET -0.21631306399999906 -0.08825326400000111 0.018656797720000014
                      }
                    }
                  }
                }
              }
            }
          }
        }
      }
    }
  }
}
MOTION
Frames: 9
Frame Time: 0.03333333333333333
0 -10.386017323533302 0.5689865157157279 0 -87.716466220775 0 -20.07800869644266 17.243954769956662 41.03787380907944 -3.309303269604166 -6.662187311817043 0.9913036166807898 27.770387289311547 -4.393462776479977 8.128672311727374 0 0 0 135.95396345141492 -44.486201817141946 -148.25282267592326 -157.7370707011888 76.01686530862668 -155.4236864205283 53.593966166637685 47.401474140696685 8.436090686697407 0 0 0 0 13.644278221601859 0 -0.6522850736618335 12.837620884034376 -0.2803428307453264 0 0 0 12.214040180927979 8.48932800282458 16.75191405524998 6.408574089888796 36.67970581225815 -84.93851062705069 -89.4685227917167 33.62894138086281 -6.0220979067756035 -1.9999233085065136 25.695119954773926 -17.511787170090244 0 0 0 0 0 0 0 0 0 0 0 0 0 0 0 0 0 0 0 0 0 0 0 0 0 0 0 0 0 0 0 0 0 0 0 0 0 0 0 0 0 0 0 0 0 0 6.833754528942187 0 0 2.1652780801910416 0 0 0 0 0 0 0 0 0 0 -12.11072192882818 8.598557101044678 -16.803480681351733 -6.593491442840047 36.73701820891008 84.4624206109533 90.03576204849412 33.629388447492595 5.952578896484425 1.773716136572071 25.44519580696993 17.705589771034205 0 0 0 0 0 0 0 0 0 0 0 0 0 0 0 0 0 0 0 0 0 0 0 0 0 0 0 0 0 0 0 0 0 0 0 0 0 0 0 0 0 0 0 0 0
0 -10.386017323533302 0.5828642748881512 0 -88.00139263839745 0 -20.117291612221795 17.481521546147132 40.92068970348715 -3.3733917161964504 -6.589967856435348 0.9926516631391065 27.62954012316742 -4.686286614911296 7.998622435607493 0 0 0 135.78063103474588 -44.6312062634231 -147.88798861788632 -157.96696579264403 75.89824370177365 -155.65836662327456 54.09001145169117 47.22996828063634 8.6893083331146 0 0 0 0 13.929633214116064 0 -0.651033894842334 12.339926478253798 -0.2745358379629588 0 0 0 12.36853138686681 8.684539177706228 17.28272807154754 6.361205471412889 36.866646544975595 -85.2980168978217 -89.86879233683202 33.59663567752594 -6.22225933966646 -1.9481138426878284 25.8058353687091 -17.86400830327392 0 0 0 0 0 0 0 0 0 0 0 0 0 0 0 0 0 0 0 0 0 0 0 0 0 0 0 0 0 0 0 0 0 0 0 0 0 0 0 0 0 0 0 0 0 0 6.524731549560581 0 0 1.9986969219741795 0 0 0 0 0 0 0 0 0 0 -12.275542333138823 8.784751119888158 -17.34513439459087 -6.550439201024042 36.928084852731054 84.81576245458402 90.4570034173887 33.595163796861534 6.156682769633786 1.7212839583906256 25.561651381234025 18.07491679780886 0 0 0 0 0 0 0 0 0 0 0 0 0 0 0 0 0 0 0 0 0 0 0 0 0 0 0 0 0 0 0 0 0 0 0 0 0 0 0 0 0 0 0 0 0
0 -10.386017323533302 0.5689865157157279 0 -87.716466220775 0 -20.07800869644266 17.243954769956662 41.03787380907944 -3.309303269604166 -6.662187311817043 0.9913036166807898 27.770387289311547 -4.393462776479977 8.128672311727374 0 0 0 135.95396345141492 -44.486201817141946 -148.25282267592326 -157.73706668533472 76.01686530862668 -155.42368201197533 53.593966166637685 47.4014791862153 8.436091310563238 0 0 0 0 13.644278221601859 0 -0.6522850736618335 12.837620884034376 -0.2803428307453264 0 0 0 12.214040180927979 8.48932800282458 16.75191405524998 6.408574089888796 36.67970581225815 -84.93851062705069 -89.4685227917167 33.62894138086281 -6.0220979067756035 -1.9999233085065136 25.695119954773926 -17.511787170090244 0 0 0 0 0 0 0 0 0 0 0 0 0 0 0 0 0 0 0 0 0 0 0 0 0 0 0 0 0 0 0 0 0 0 0 0 0 0 0 0 0 0 0 0 0 0 6.833754099000881 0 0 2.1652780801910416 0 0 0 0 0 0 0 0 0 0 -12.11072192882818 8.598557101044678 -16.803480681351733 -6.593491442840047 36.73701820891008 84.4624206109533 90.0357622687916 33.629388447492595 5.952579406412436 1.7737159003130065 25.44519580696993 17.705589771034205 0 0 0 0 0 0 0 0 0 0 0 0 0 0 0 0 0 0 0 0 0 0 0 0 0 0 0 0 0 0 0 0 0 0 0 0 0 0 0 0 0 0 0 0 0
0 -10.386017323533302 0.5551087565433046 0 -87.43150676381474 0 -20.039283792151345 17.006313009522284 41.154734377931774 -3.245203762667434 -6.73440536559541 0.989874093272026 27.911846313388455 -4.100958879053062 8.259393986006678 0 0 0 136.12557310567024 -44.34041569255798 -148.61613510600134 -157.5032154841525 76.13527002213515 -155.18504769618224 53.095185533130824 47.571484988285 8.179858112819758 0 0 0 0 13.358922933420352 0 -0.6535906308653694 13.335315351039066 -0.28617267366253235 0 0 0 12.06146258654669 8.292711333944593 16.221901028942263 6.4543685242107705 36.492530103583896 -84.58006641658451 -89.06797255923048 33.660077531610796 -5.821596700706024 -2.052438174979184 25.58469481011874 -17.159781501265464 0 0 0 0 0 0 0 0 0 0 0 0 0 0 0 0 0 0 0 0 0 0 0 0 0 0 0 0 0 0 0 0 0 0 0 0 0 0 0 0 0 0 0 0 0 0 7.142776893339572 0 0 2.331858967148322 0 0 0 0 0 0 0 0 0 0 -11.947768036955912 8.410832845236861 -16.262638388308275 -6.634968864827072 36.54574580473249 84.11013325386557 89.6142128330523 33.662362933910934 5.7480996075626045 1.8269266942139808 25.32904732972567 17.33650237354707 0 0 0 0 0 0 0 0 0 0 0 0 0 0 0 0 0 0 0 0 0 0 0 0 0 0 0 0 0 0 0 0 0 0 0 0 0 0 0 0 0 0 0 0 0
0 -10.386017323533302 0.5412309973708813 0 -87.14658676929889 0 -20.001114024184684 16.76859425479942 41.27128135346421 -3.1810926066073173 -6.806621701990563 0.9883630499245307 28.053925479335458 -3.808778918923673 8.390793520730048 0 0 0 136.29546424663107 -44.19385753646245 -148.97793690147802 -157.2653174481452 76.25342411868677 -154.9423665749199 52.59366015591937 47.739977584252664 7.920601899581061 0 0 0 0 13.073567297032568 0 -0.6549511131427657 13.833009740600875 -0.2920264994749777 0 0 0 11.910804238787428 8.094707962043106 15.692680029690678 6.498598634220528 36.305131845052074 -84.22267069319112 -88.66715152071339 33.69004697380191 -5.620767006570449 -2.105655283972649 25.474562503591255 -16.807986951845773 0 0 0 0 0 0 0 0 0 0 0 0 0 0 0 0 0 0 0 0 0 0 0 0 0 0 0 0 0 0 0 0 0 0 0 0 0 0 0 0 0 0 0 0 0 0 7.451799890575962 0 0 2.4984399228631116 0 0 0 0 0 0 0 0 0 0 -11.786691588809207 8.22159670148518 -15.722595748172255 -6.6748836288050155 36.354271283911594 83.75888596319827 89.19236600317221 33.69408172506898 5.5432566084259545 1.880912612238133 25.213210249927545 16.967646773743038 0 0 0 0 0 0 0 0 0 0 0 0 0 0 0 0 0 0 0 0 0 0 0 0 0 0 0 0 0 0 0 0 0 0 0 0 0 0 0 0 0 0 0 0 0
0 -10.386017323533302 0.5273533276625484 0 -86.86143989801158 0 -19.963474069574545 16.53067181115705 41.387587813487976 -3.116965093496217 -6.878841164784962 0.9867708245277891 28.19677507366531 -3.516622631703552 8.523011563285555 0 0 0 136.46377633273343 -44.04642761884176 -149.33851213551407 -157.0232383053764 76.37135070431451 -154.69550342729343 52.08873307117074 47.907142408610426 7.6579801325157915 0 0 0 0 12.788021270430189 0 -0.6563700840183491 14.331726903254845 -0.2979174192698014 0 0 0 11.761678684280389 7.894804736028974 15.16284596139406 6.54132551395064 36.117290808491255 -83.86587938697895 -88.26568686723789 33.71886902424371 -5.419431766985293 -2.1596400950165995 25.364585763834064 -16.455945440882903 0 0 0 0 0 0 0 0 0 0 0 0 0 0 0 0 0 0 0 0 0 0 0 0 0 0 0 0 0 0 0 0 0 0 0 0 0 0 0 0 0 0 0 0 0 0 7.761065601640257 0 0 2.665058894064969 0 0 0 0 0 0 0 0 0 0 -11.627066398601452 8.030343528757484 -15.181876083146904 -6.713293616999531 36.162374045963574 83.40823960110623 88.76979142978628 33.72458039502468 5.337849930803585 1.9357474074363001 25.097528587635182 16.598503913944324 0 0 0 0 0 0 0 0 0 0 0 0 0 0 0 0 0 0 0 0 0 0 0 0 0 0 0 0 0 0 0 0 0 0 0 0 0 0 0 0 0 0 0 0 0
0 -10.386017323533302 0.5134756579542156 0 -86.57634534715916 0 -19.926384248836666 16.292675765143834 41.503590030135 -3.0528253623991457 -6.951059139639537 0.9850969315807808 28.340258684076613 -3.224797088427644 8.65591899865592 0 0 0 136.63037913721126 -43.89824047520978 -149.69758934368429 -156.77691479475982 76.48902982545007 -154.4443994045608 51.58103847610669 48.072743117815705 7.392315684782474 0 0 0 0 12.502474316246513 0 -0.6578453092035071 14.830444571183067 -0.30383446946511516 0 0 0 11.614497311898308 7.69354650068731 14.633790255763104 6.582506156864663 35.92923590441692 -83.51011096842899 -87.863970824789 33.7465178918898 -5.217792503597597 -2.214322104223539 25.25491102539487 -16.10410935659168 0 0 0 0 0 0 0 0 0 0 0 0 0 0 0 0 0 0 0 0 0 0 0 0 0 0 0 0 0 0 0 0 0 0 0 0 0 0 0 0 0 0 0 0 0 0 8.070331345727368 0 0 2.831677983455055 0 0 0 0 0 0 0 0 0 0 -11.469344554465724 7.837610133582734 -14.641949370127547 -6.750158567738015 35.970287133120905 83.05860674067674 88.34694087649572 33.75381246956399 5.1321077019006704 1.991351740142193 24.982167204480525 16.229586531032773 0 0 0 0 0 0 0 0 0 0 0 0 0 0 0 0 0 0 0 0 0 0 0 0 0 0 0 0 0 0 0 0 0 0 0 0 0 0 0 0 0 0 0 0 0
0 -10.386017323533302 0.49959798824588264 0 -86.2912320204575 0 -19.889840198146384 16.054609394830038 41.619292800165226 -2.9886738849558148 -7.023275310517721 0.9833412775051641 28.484381817980523 -2.9333055378776485 8.789522514671836 0 0 0 136.79527886638456 -43.749305492694916 -150.05517882181385 -156.52624575061796 76.6064555860501 -154.18895065548367 51.07055989605238 48.236760845273075 7.123604495686106 0 0 0 0 12.216927218994126 0 -0.6593774273270945 15.329161712609887 -0.30977869765660265 0 0 0 11.469264972926405 7.490949949941258 14.105506653984538 6.622148920514567 35.74097926255948 -83.15535208261758 -87.46201348586914 33.7729883401678 -5.015861337960161 -2.2696981322369902 25.145540840538644 -15.75247424451861 0 0 0 0 0 0 0 0 0 0 0 0 0 0 0 0 0 0 0 0 0 0 0 0 0 0 0 0 0 0 0 0 0 0 0 0 0 0 0 0 0 0 0 0 0 0 8.379597513990344 0 0 2.998297104296378 0 0 0 0 0 0 0 0 0 0 -11.3135349464643 7.643413645330356 -14.102807571024407 -6.785489162623087 35.77802661647753 82.70997343138824 87.92382553119909 33.781780769674484 4.9260417547105115 2.0477217887534582 24.867134141164883 15.860890582843128 0 0 0 0 0 0 0 0 0 0 0 0 0 0 0 0 0 0 0 0 0 0 0 0 0 0 0 0 0 0 0 0 0 0 0 0 0 0 0 0 0 0 0 0 0
0 -10.386017323533302 0.48572022907345935 0 -86.00595053604813 0 -19.85382268920636 15.81635171850682 41.73474563126757 -2.9245061533110714 -7.095494093148085 0.9815032784066385 28.629272002565074 -2.641900212289777 8.923942207505657 0 0 0 136.95858548459643 -43.59952821251195 -150.41152169505173 -156.271103099099 76.72363675959993 -153.92902907560028 50.55674573160618 48.39934114345661 6.851552610786001 0 0 0 0 11.931220188757214 0 -0.6609695189684516 15.828734447819718 -0.3157614662937639 0 0 0 11.325672923252197 7.286582359257853 13.576814128187607 6.660298493272578 35.55233979212765 -82.80124181021286 -87.05951856243779 33.798299830608606 -4.813494731276812 -2.3258252684712155 25.036364683192673 -15.400665636927235 0 0 0 0 0 0 0 0 0 0 0 0 0 0 0 0 0 0 0 0 0 0 0 0 0 0 0 0 0 0 0 0 0 0 0 0 0 0 0 0 0 0 0 0 0 0 8.689066594513118 0 0 3.164948021251167 0 0 0 0 0 0 0 0 0 0 -11.159295816978666 7.447325058576698 -13.563214087882818 -6.8193268640023055 35.58539842928431 82.36198263087356 87.50010121695198 33.808508724663 4.719492400179607 2.1049206372224676 24.75230015669592 15.491983617548986 0 0 0 0 0 0 0 0 0 0 0 0 0 0 0 0 0 0 0 0 0 0 0 0 0 0 0 0 0 0 0 0 0 0 0 0 0 0 0 0 0 0 0 0 0
